<svg width="16" height="15" viewBox="0 0 16 15" fill="none" xmlns="http://www.w3.org/2000/svg">
<g clip-path="url(#clip0_181_8419)">
<path d="M0.959961 5.06405C0.959961 4.28965 1.59356 3.65605 2.36796 3.65605H4.47996L5.88796 2.24805H10.112L11.52 3.65605H13.632C14.0054 3.65605 14.3635 3.80439 14.6276 4.06844C14.8916 4.33249 15.04 4.69062 15.04 5.06405V12.104C15.04 12.4775 14.8916 12.8356 14.6276 13.0997C14.3635 13.3637 14.0054 13.512 13.632 13.512H2.36796C1.99454 13.512 1.63641 13.3637 1.37235 13.0997C1.1083 12.8356 0.959961 12.4775 0.959961 12.104V5.06405ZM7.99996 12.104C8.93352 12.104 9.82885 11.7332 10.489 11.0731C11.1491 10.4129 11.52 9.51761 11.52 8.58405C11.52 7.65048 11.1491 6.75516 10.489 6.09503C9.82885 5.4349 8.93352 5.06405 7.99996 5.06405C7.0664 5.06405 6.17107 5.4349 5.51094 6.09503C4.85082 6.75516 4.47996 7.65048 4.47996 8.58405C4.47996 9.51761 4.85082 10.4129 5.51094 11.0731C6.17107 11.7332 7.0664 12.104 7.99996 12.104ZM7.99996 10.696C7.72261 10.696 7.44797 10.6414 7.19173 10.5353C6.93549 10.4291 6.70267 10.2736 6.50655 10.0775C6.31043 9.88134 6.15487 9.64851 6.04873 9.39227C5.94259 9.13603 5.88796 8.8614 5.88796 8.58405C5.88796 8.30669 5.94259 8.03206 6.04873 7.77582C6.15487 7.51958 6.31043 7.28675 6.50655 7.09064C6.70267 6.89452 6.93549 6.73895 7.19173 6.63281C7.44797 6.52668 7.72261 6.47205 7.99996 6.47205C8.5601 6.47205 9.09729 6.69456 9.49337 7.09064C9.88945 7.48671 10.112 8.02391 10.112 8.58405C10.112 9.14418 9.88945 9.68138 9.49337 10.0775C9.09729 10.4735 8.5601 10.696 7.99996 10.696Z" fill="white"/>
</g>
<defs>
<clipPath id="clip0_181_8419">
<rect width="14.08" height="14.08" fill="white" transform="translate(0.959961 0.839966)"/>
</clipPath>
</defs>
</svg>
