<svg width="24" height="24" viewBox="0 0 24 24" fill="none" xmlns="http://www.w3.org/2000/svg">
<g clip-path="url(#clip0_177_12709)">
<path d="M8.5 4C7.675 4 7 4.675 7 5.5C7 6.325 7.675 7 8.5 7C9.325 7 10 6.325 10 5.5C10 4.675 9.325 4 8.5 4ZM8.5 17C7.675 17 7 17.675 7 18.5C7 19.325 7.675 20 8.5 20C9.325 20 10 19.325 10 18.5C10 17.675 9.325 17 8.5 17ZM8.5 10.5C7.675 10.5 7 11.175 7 12C7 12.825 7.675 13.5 8.5 13.5C9.325 13.5 10 12.825 10 12C10 11.175 9.325 10.5 8.5 10.5Z" fill="#3E3E47"/>
<path d="M15 4C14.175 4 13.5 4.675 13.5 5.5C13.5 6.325 14.175 7 15 7C15.825 7 16.5 6.325 16.5 5.5C16.5 4.675 15.825 4 15 4ZM15 17C14.175 17 13.5 17.675 13.5 18.5C13.5 19.325 14.175 20 15 20C15.825 20 16.5 19.325 16.5 18.5C16.5 17.675 15.825 17 15 17ZM15 10.5C14.175 10.5 13.5 11.175 13.5 12C13.5 12.825 14.175 13.5 15 13.5C15.825 13.5 16.5 12.825 16.5 12C16.5 11.175 15.825 10.5 15 10.5Z" fill="#3E3E47"/>
</g>
<defs>
<clipPath id="clip0_177_12709">
<rect width="24" height="24" fill="white"/>
</clipPath>
</defs>
</svg>
